<svg width="20" height="20" viewBox="0 0 20 20" fill="none" xmlns="http://www.w3.org/2000/svg">
<path d="M14.348 14.849C14.123 15.074 13.8177 15.2004 13.4995 15.2004C13.1813 15.2004 12.876 15.074 12.651 14.849L10 11.819L7.349 14.848C7.2379 14.9609 7.10555 15.0507 6.95957 15.1122C6.81359 15.1737 6.65688 15.2057 6.49847 15.2064C6.34007 15.207 6.1831 15.1763 6.03663 15.116C5.89015 15.0557 5.75707 14.9669 5.64506 14.8549C5.53305 14.7429 5.44432 14.6098 5.384 14.4634C5.32368 14.3169 5.29295 14.1599 5.2936 14.0015C5.29424 13.8431 5.32624 13.6864 5.38776 13.5404C5.44927 13.3944 5.53908 13.2621 5.652 13.151L8.41 10.001L5.651 6.84899C5.53808 6.73789 5.44827 6.60554 5.38676 6.45956C5.32524 6.31358 5.29324 6.15687 5.2926 5.99847C5.29195 5.84006 5.32268 5.68309 5.383 5.53662C5.44332 5.39014 5.53205 5.25706 5.64406 5.14505C5.75607 5.03304 5.88915 4.94431 6.03563 4.88399C6.1821 4.82367 6.33907 4.79294 6.49747 4.79359C6.65588 4.79423 6.81259 4.82624 6.95857 4.88775C7.10455 4.94926 7.2369 5.03907 7.348 5.15199L10 8.18299L12.651 5.15199C12.7621 5.03907 12.8944 4.94926 13.0404 4.88775C13.1864 4.82624 13.3431 4.79423 13.5015 4.79359C13.6599 4.79294 13.8169 4.82367 13.9634 4.88399C14.1098 4.94431 14.2429 5.03304 14.3549 5.14505C14.4669 5.25706 14.5557 5.39014 14.616 5.53662C14.6763 5.68309 14.707 5.84006 14.7064 5.99847C14.7058 6.15687 14.6737 6.31358 14.6122 6.45956C14.5507 6.60554 14.4609 6.73789 14.348 6.84899L11.59 10.001L14.348 13.151C14.4596 13.2624 14.5481 13.3948 14.6085 13.5405C14.6689 13.6861 14.6999 13.8423 14.6999 14C14.6999 14.1577 14.6689 14.3138 14.6085 14.4595C14.5481 14.6052 14.4596 14.7375 14.348 14.849Z" fill="white"/>
</svg>
