<svg width="63" height="63" viewBox="0 0 63 63" fill="none" xmlns="http://www.w3.org/2000/svg">
<path fill-rule="evenodd" clip-rule="evenodd" d="M26.5787 7.50134C26.5942 11.7587 25.1463 19.4599 36.2843 21.3212C29.3702 22.3192 26.728 27.6633 26.58 34.5182C26.4105 29.3439 27.1202 23.3691 15.7773 21.7315C26.6639 20.8707 26.5129 11.8765 26.5787 7.50134Z" fill="white" stroke="#7B66FB" stroke-width="2.68451" stroke-miterlimit="1.5" stroke-linecap="round" stroke-linejoin="round"/>
<path fill-rule="evenodd" clip-rule="evenodd" d="M37.3885 28.2709C37.4039 32.5283 34.5038 40.4331 45.6419 42.2945C38.7277 43.2925 37.5377 48.4328 37.3898 55.2877C37.2202 50.1132 36.8734 44.0931 29.0058 42.3663C36.6319 41.4562 36.5033 34.0807 37.3885 28.2709Z" fill="white" stroke="#7B66FB" stroke-width="2.68451" stroke-miterlimit="1.5" stroke-linecap="round" stroke-linejoin="round"/>
<path d="M14.7649 6.26385C16.5626 8.34367 17.988 10.7562 19.8329 12.7911" stroke="#7B66FB" stroke-width="2.68451" stroke-miterlimit="1.5" stroke-linecap="round" stroke-linejoin="round"/>
<path d="M32.2137 14.3301C33.5594 13.2211 34.8318 11.9583 35.9222 10.5952" stroke="#7B66FB" stroke-width="2.68451" stroke-miterlimit="1.5" stroke-linecap="round" stroke-linejoin="round"/>
<path d="M20.2942 28.6584C18.4852 30.3351 16.8053 32.2017 15.1692 34.0474" stroke="#7B66FB" stroke-width="2.68451" stroke-miterlimit="1.5" stroke-linecap="round" stroke-linejoin="round"/>
<path d="M31.542 32.5032C31.7395 32.8052 31.9777 33.0803 32.1928 33.3701" stroke="#7B66FB" stroke-width="2.68451" stroke-miterlimit="1.5" stroke-linecap="round" stroke-linejoin="round"/>
<path d="M29.3005 49.7259C29.7309 49.2973 30.1766 48.8842 30.6004 48.4487" stroke="#7B66FB" stroke-width="2.68451" stroke-miterlimit="1.5" stroke-linecap="round" stroke-linejoin="round"/>
<path d="M41.962 35.7798C43.8667 34.056 45.5235 32.1623 47.1273 30.1604" stroke="#7B66FB" stroke-width="2.68451" stroke-miterlimit="1.5" stroke-linecap="round" stroke-linejoin="round"/>
<path d="M42.4267 49.875C44.6723 51.2722 46.2351 54.1491 47.7889 56.2507" stroke="#7B66FB" stroke-width="2.68451" stroke-miterlimit="1.5" stroke-linecap="round" stroke-linejoin="round"/>
</svg>
